<svg width="91" height="91" viewBox="0 0 91 91" fill="none" xmlns="http://www.w3.org/2000/svg">
<path d="M47.32 13.9199V12.12C50.4522 11.4305 52.78 9.03676 52.78 6.16949C52.78 2.76702 49.5149 0 45.5 0C41.4851 0 38.22 2.76702 38.22 6.16949C38.22 9.03676 40.5478 11.4305 43.68 12.12V13.9199C19.4321 14.7343 0 31.6958 0 52.4407C0 73.7023 20.4113 91 45.5 91C70.5887 91 91 73.7023 91 52.4407C91 31.6958 71.5679 14.7343 47.32 13.9199ZM41.86 6.16949C41.86 4.46825 43.4925 3.08475 45.5 3.08475C47.5075 3.08475 49.14 4.46825 49.14 6.16949C49.14 7.87073 47.5075 9.25424 45.5 9.25424C43.4925 9.25424 41.86 7.87073 41.86 6.16949ZM45.5 87.9153C22.4169 87.9153 3.64 72.0026 3.64 52.4407C3.64 32.8788 22.4169 16.9661 45.5 16.9661C68.5831 16.9661 87.36 32.8788 87.36 52.4407C87.36 72.0026 68.5831 87.9153 45.5 87.9153Z" fill="#C4C4C4"/>
<path d="M67.8498 31.4305L36.9644 44.5175C36.9171 44.5376 36.8898 44.5792 36.8443 44.6039C36.7205 44.6672 36.6259 44.7474 36.5222 44.8337C36.4202 44.9201 36.3256 45.0018 36.251 45.1067C36.2237 45.1453 36.1745 45.1684 36.1491 45.2085L20.7064 71.3826C20.3569 71.9764 20.4934 72.6936 21.0485 73.1625C21.398 73.4586 21.8639 73.6144 22.3353 73.6144C22.6119 73.6144 22.8904 73.562 23.1488 73.4525L54.0342 60.3654C54.0815 60.3454 54.1088 60.3037 54.1543 60.2791C54.2781 60.2158 54.3727 60.1356 54.4765 60.0492C54.5784 59.9629 54.673 59.8811 54.7476 59.7762C54.7749 59.7377 54.8241 59.7145 54.8496 59.6744L70.2923 33.5004C70.6417 32.9066 70.5052 32.1894 69.9501 31.7205C69.395 31.2516 68.5523 31.1344 67.8498 31.4305ZM26.4066 68.6217L38.2785 48.5015L50.1467 58.5593L26.4066 68.6217ZM52.722 56.3799L40.8538 46.3221L64.5957 36.2612L52.722 56.3799Z" fill="#C4C4C4"/>
</svg>
