<svg width="91" height="91" viewBox="0 0 91 91" fill="none" xmlns="http://www.w3.org/2000/svg">
<path d="M90.6678 39.8874C89.8254 32.2491 87.0081 25.2707 82.4518 19.0534C75.1115 9.04217 65.2946 2.92125 53.0358 0.790387C50.5916 0.366044 48.0919 0.255614 45.6179 0C45.4535 0 45.2902 0 45.1269 0C42.8154 0.252438 40.494 0.419671 38.1987 0.771514C14.6278 4.3802 -2.4142 26.6474 0.280238 50.3372C1.56594 61.6445 6.31338 71.2873 14.7413 78.9776C24.7617 88.1223 36.665 92.0432 50.1599 90.764C60.5169 89.7791 69.5544 85.6119 77.0032 78.3404C87.8207 67.7718 92.3194 54.8532 90.6678 39.8874ZM81.0637 63.1696C79.9113 61.1649 78.4567 58.3698 77.8068 55.9842C76.8626 52.5205 74.5955 55.8671 74.4061 58.1291C74.2168 60.3911 72.706 62.0874 69.6827 58.6943C66.6594 55.3016 66.0927 56.0549 65.1484 56.0549C64.2041 56.0549 62.5037 58.3165 62.8813 68.8731C63.1504 76.4098 66.1305 77.6059 68.0777 78.1526C64.4622 80.631 60.3077 82.5836 55.6449 83.7653C37.8236 88.278 19.6324 80.0832 11.1331 63.8025C3.21478 48.6329 7.07262 31.4671 15.122 22.0193C15.3385 23.7185 15.5506 25.2449 15.727 26.7773C16.2068 30.9609 15.8448 35.0898 14.9893 39.2022C14.8065 40.0786 14.8702 41.0769 15.1071 41.9389C15.2359 42.4096 15.9472 42.9655 16.4387 43.012C16.8256 43.0495 17.5007 42.4376 17.6575 41.9781C17.9408 41.1565 17.9525 40.2353 18.0395 39.3523C18.1021 38.7293 18.1032 38.0981 18.1463 37.1209C18.7855 37.6377 19.2516 37.9513 19.6391 38.3401C20.6265 39.3319 21.6251 40.3192 22.5261 41.3856C22.9241 41.8589 23.3342 42.5215 23.3232 43.0914C23.2983 44.3106 23.8345 45.1397 24.4894 46.0971C25.2172 47.1618 25.5449 48.5004 26.0131 49.7331C26.209 50.2499 26.25 50.8331 26.4836 51.3301C26.9823 52.3946 27.7361 53.1237 29.0319 53.2031C30.3952 53.2892 30.9055 53.8171 31.1014 55.2086C30.7527 55.2484 30.4057 55.2949 30.0575 55.3269C28.3948 55.485 27.5708 56.2469 27.6365 57.9202C27.7665 61.2434 28.9681 64.1469 31.4406 66.4553C32.1219 67.0926 32.8458 67.6846 33.5078 68.3372C35.0199 69.8272 35.5475 71.5776 34.8207 73.6353C34.4725 74.616 33.9953 75.5791 33.841 76.5931C33.6839 77.6234 33.6827 78.7434 33.9219 79.7517C34.1699 80.8009 34.0635 83.0958 35.1495 82.9059C37.0707 82.569 38.1749 82.9469 38.3244 80.8009C38.3526 80.392 38.321 80.3414 38.212 79.9638C37.6408 77.9493 40.2345 72.2305 41.7908 71.1879C43.1203 70.2954 44.4536 69.3875 45.6586 68.3395C47.3958 66.8331 48.1736 64.887 47.4436 62.6209C46.7566 60.4881 47.5602 58.9221 49.0548 57.5491C50.5792 56.1498 51.5788 54.5372 51.4746 52.3836C51.3705 50.2299 49.958 48.6747 48.1172 48.8958C47.2171 49.0017 46.3543 49.4324 45.4769 49.7273C44.1906 50.1613 42.9353 50.7688 41.6151 51.0052C39.7648 51.3322 38.6246 50.126 37.7992 48.6615C37.1351 47.4841 36.9164 47.3937 35.7635 48.1271C34.7909 48.7478 33.8202 49.3728 32.8128 49.9339C31.7663 50.5171 31.196 50.3007 30.3892 49.4281C29.912 48.9133 29.2513 48.5512 28.6379 48.1801C28.1968 47.9107 27.6005 47.8365 27.2469 47.4987C26.7731 47.0415 26.1122 46.3634 26.1792 45.8676C26.2573 45.2856 26.9331 44.5571 27.5224 44.3186C28.5381 43.9077 29.6921 43.8414 30.7814 43.6052C31.3614 43.4793 31.9498 43.3483 32.4982 43.1325C33.2488 42.8337 33.2172 42.3417 32.6426 41.88C32.3592 41.653 32.0088 41.4934 31.6672 41.3565C30.0068 40.6894 28.3369 40.0515 26.6774 39.3818C26.265 39.2166 25.8588 39.0135 25.4885 38.7721C24.4452 38.088 24.3195 37.3348 25.2661 36.5015C29.0033 33.2125 33.3687 32.2495 37.2364 36.6192C38.4347 37.9726 39.2473 39.6602 40.3787 41.0805C41.2686 42.2005 42.2933 43.2519 43.4245 44.1161C43.8906 44.4711 44.9388 44.5315 45.4602 44.2463C46.2367 43.8222 46.2639 42.8554 45.8732 42.0491C45.5355 41.3488 45.1387 40.6586 44.6617 40.0457C42.4643 37.221 42.6154 31.7166 46.9194 29.4199C48.359 28.6507 49.8112 27.8405 50.4987 25.7769C49.6741 25.9994 49.0761 26.1429 48.4905 26.3219C45.2222 27.3319 47.4975 24.8994 49.001 24.4753C49.9142 24.2163 48.1841 23.5182 48.1841 23.5182C48.2251 23.447 49.3331 23.1316 50.5652 22.6075C51.413 22.248 52.2798 21.8433 52.984 21.2711C53.4402 20.8978 53.616 20.1844 53.9161 19.6233C53.8398 19.5349 53.7655 19.4487 53.6881 19.3604C52.8246 19.4764 51.9621 19.6038 51.0965 19.7012C49.6297 19.865 49.2855 19.578 49.1495 18.1019C49.0553 17.094 48.0258 16.5447 47.0645 17.0615C46.4141 17.4134 45.8517 17.9235 45.2257 18.3271C43.7807 19.261 42.7002 18.8876 42.1333 17.2773C41.7957 16.3188 41.3254 16.1375 40.4414 16.6744C39.9968 16.9438 39.626 17.3375 39.1739 17.5894C38.4326 18.0025 37.679 18.4171 36.883 18.6978C36.1077 18.9717 35.1739 19.1705 34.6463 18.3222C34.0796 17.41 34.575 16.5219 35.2896 15.9499C36.1779 15.2386 37.202 14.6864 38.2015 14.1276C39.6252 13.328 41.1329 12.663 42.5077 11.7911C43.5168 11.1487 43.9578 10.1018 43.6314 8.86653C43.3557 7.82389 42.6566 7.47112 41.6885 7.94927C40.8892 8.34521 40.1908 8.96482 39.3688 9.28396C38.7682 9.5136 38.0198 9.51603 37.375 9.4028C37.137 9.36075 36.884 8.70266 36.8774 8.32055C36.8729 8.10025 37.3207 7.71757 37.6063 7.67105C39.5923 7.36237 41.587 7.10115 43.5846 6.87412C43.8487 6.84535 44.2455 7.00828 44.4111 7.21868C45.7305 8.88036 47.5715 9.68663 49.5082 10.2619C51.1353 10.744 51.3711 10.5144 51.5949 8.81122C53.6848 8.32036 55.8091 7.35321 57.9123 8.6765C59.0791 9.40915 60.1429 10.3427 61.1304 11.3094C61.3752 11.5501 61.2257 12.2945 61.1083 12.774C60.9534 13.4183 60.5959 14.0138 60.4309 14.658C60.1121 15.9066 60.9212 16.8823 62.2142 16.862C62.6227 16.8532 63.03 16.7696 63.4407 16.7493C64.6352 16.6936 65.0592 17.1497 64.9497 18.353C64.7946 20.0583 65.0791 20.2632 66.8038 19.9721C67.2995 19.8888 67.872 20.1134 68.3779 20.2903C68.6788 20.3963 68.9124 20.684 69.1804 20.886C70.7843 22.0987 72.0108 21.6443 72.4803 19.6601C72.5311 19.4441 72.5245 19.2133 72.5689 18.9951C72.7549 18.1049 73.2587 17.8758 73.8606 18.5085C75.136 19.8559 76.3325 21.2784 77.6265 22.7474C76.2361 24.0197 76.1896 25.5659 76.4975 27.0811C76.8395 28.7667 76.3945 30.2311 75.7282 31.716C75.0895 33.1385 74.3878 34.5522 73.9613 36.0405C73.3238 38.2743 74.0477 39.2947 76.3215 39.7891C78.4912 40.2617 78.8464 40.6969 78.9285 42.8132C79.038 45.6997 80.5238 47.6919 83.062 48.9632C83.6255 49.2437 84.2243 49.4569 84.7998 49.6955C84.5153 54.1452 83.2422 58.7762 81.0637 63.1696Z" fill="#C4C4C4"/>
</svg>
