<svg width="91" height="91" viewBox="0 0 91 91" fill="none" xmlns="http://www.w3.org/2000/svg">
<path d="M62.0538 49.9456C62.5628 51.9573 56.9935 51.3191 55.6333 53.2025C54.2722 55.085 50.9467 53.8201 50.1756 53.4582C49.4046 53.0964 46.4512 54.3024 46.7094 52.2522C46.966 50.2013 48.7627 50.0809 50.6895 49.2367C52.6154 48.3935 55.3934 45.5895 54.0284 45.223C47.6015 43.4992 45.409 37.462 45.409 37.462C45.0234 37.3895 45.1202 33.1941 43.4515 33.0736C41.7813 32.9526 40.8819 33.5559 38.4431 33.0736C36.0027 32.5913 36.5172 31.0234 36.1316 27.6461C35.747 24.2688 37.16 25.3544 37.9232 24.2694C37.9899 24.1741 38.0767 24.0892 38.1616 24.0043C29.2258 27.0637 22.7808 35.5416 22.7808 45.5006C22.7808 45.5164 22.7817 45.5321 22.7817 45.5479C24.4425 45.655 27.4667 46.0056 27.609 47.145C27.8056 48.7184 27.609 50.6852 28.9859 51.2752C30.3627 51.8651 30.7562 48.9149 31.9362 49.7018C33.1161 50.4886 36.2633 51.246 36.2633 52.6371C36.2633 54.0279 35.6733 56.1922 36.2633 56.5856C36.8533 56.979 39.212 59.7324 39.2127 60.1258C39.2136 60.5192 40.0441 62.5197 39.7963 63.2844C39.5909 63.9184 38.5547 65.887 37.5501 66.7822C40.0259 67.7098 42.7041 68.2203 45.5 68.2203C58.0279 68.2203 68.2201 58.0283 68.2201 45.5006C68.2201 41.7905 67.3201 38.2879 65.7364 35.1915C65.8883 37.502 65.7858 39.6074 66.2918 40.2972C68.5058 43.312 60.8981 45.3859 62.0538 49.9456Z" fill="#C4C4C4"/>
<path d="M45.4991 0C20.3708 0 0 20.3722 0 45.4991C0 70.626 20.3708 91 45.4991 91C70.6274 91 91 70.6272 91 45.4991C91 20.371 70.6277 0 45.4991 0ZM45.5 72.9401C30.3694 72.9401 18.0593 60.6312 18.0593 45.5C18.0593 30.3688 30.3694 18.0599 45.5 18.0599C60.6306 18.0599 72.9407 30.3688 72.9407 45.5C72.9407 60.6312 60.6306 72.9401 45.5 72.9401Z" fill="#C4C4C4"/>
</svg>
